<svg width="158" height="35" fill="none" xmlns="http://www.w3.org/2000/svg"><path fill-rule="evenodd" clip-rule="evenodd" d="M79.265 7.557v3.174h-5.383v9.067c0 1.926 1.122 2.889 2.983 2.889 1.006-.018 2-.164 2.964-.436l.49 3.21c-.915.357-2.527.605-3.994.605-3.819 0-6.219-2.132-6.219-5.814v-9.52h-3.249V7.556h3.31V1.743h3.667v5.814h5.431zm-20.67 7.196c-2.304-.473-3.158-1.042-3.158-2.175 0-1.338 1.37-2.113 4.128-2.113 1.897 0 4.073.418 5.552 1.06l.4-3.247c-1.521-.66-3.898-1.096-6.14-1.096-4.565 0-7.608 2.265-7.608 5.342 0 2.798 1.71 4.62 4.922 5.269l2.698.545c2.358.473 3.346 1.133 3.346 2.362 0 1.4-1.28 2.078-4.013 2.078a16.514 16.514 0 01-6.243-1.309l-.455 3.235c1.576.848 4.164 1.356 6.94 1.356 4.431 0 7.432-1.756 7.432-5.42 0-3.156-1.976-4.7-5.686-5.457l-2.115-.43zm21.18 1.871c0-5.305 4.146-9.442 9.698-9.442 5.553 0 9.699 4.137 9.699 9.442 0 5.306-4.14 9.442-9.693 9.442-5.552 0-9.698-4.136-9.698-9.442h-.006zm3.764 0c0 3.343 2.497 5.93 5.94 5.93 3.443 0 5.934-2.593 5.934-5.93 0-3.343-2.49-5.93-5.934-5.93-3.443 0-5.934 2.587-5.934 5.93h-.006zm18.76-9.067l4.728 6.384 4.734-6.384h4.334l-6.728 8.873 6.879 9.255h-4.327l-4.892-6.778-4.886 6.778h-4.334l6.88-9.255-6.728-8.873h4.34zm-66.956 2.478c1.352-1.72 3.406-2.853 6.504-2.853 5.189 0 9.165 3.967 9.165 9.539 0 5.572-3.976 9.345-9.165 9.345-3.098 0-5.152-1.132-6.504-2.852v10.03h-3.764V7.563h3.764v2.47zm.024 6.686c0 3.343 2.528 5.984 6.025 5.984 3.516 0 5.856-2.647 5.862-5.984 0-3.343-2.34-6.178-5.856-6.178h-.006c-3.515.006-6.025 2.835-6.025 6.178zm-23.142.551a11.785 11.785 0 001.552-1.302 11.826 11.826 0 002.213-3.034v4.833c0 3.004 1.654 4.736 4.449 4.736 2.873 0 5.134-1.732 5.134-4.736V7.557h3.758v18.128h-3.782V23.4c-.607.927-2.34 2.66-5.704 2.66-4.983 0-7.626-3.096-7.626-7.499l.006-1.29zM4 19.35v-3.634a8.448 8.448 0 005.861-2.387 8.262 8.262 0 001.795-2.64 8.046 8.046 0 00.636-3.126h3.691c0 1.55-.309 3.083-.915 4.513a11.712 11.712 0 01-2.594 3.815A12.104 12.104 0 014 19.35z" fill="#5A2989"/></svg>